{
    "asset": {
        "version": "2.0",
        "generator": "Open Asset Import Library (assimp v5.0.5eb040c7)"
    },
    "accessors": [
        {
            "bufferView": 0,
            "byteOffset": 0,
            "componentType": 5126,
            "count": 159635,
            "type": "VEC3",
            "max": [
                66.21774291992188,
                46.588871002197269,
                40.03770446777344
            ],
            "min": [
                -74.31391906738281,
                -52.272132873535159,
                -83.75101470947266
            ]
        },
        {
            "bufferView": 1,
            "byteOffset": 0,
            "componentType": 5126,
            "count": 159635,
            "type": "VEC3",
            "max": [
                0.9999868869781494,
                0.9999929070472717,
                0.9999794960021973
            ],
            "min": [
                -0.9999997615814209,
                -0.9999926686286926,
                -0.9999578595161438
            ]
        },
        {
            "bufferView": 2,
            "byteOffset": 0,
            "componentType": 5126,
            "count": 159635,
            "type": "VEC4",
            "max": [
                1.0,
                1.0,
                1.0,
                1.0
            ],
            "min": [
                0.0,
                0.0,
                0.0,
                1.0
            ]
        },
        {
            "bufferView": 3,
            "byteOffset": 0,
            "componentType": 5125,
            "count": 957021,
            "type": "SCALAR",
            "max": [
                159634
            ],
            "min": [
                0
            ]
        }
    ],
    "buffers": [
        {
            "byteLength": 10213484,
            "uri": "result.bin"
        }
    ],
    "bufferViews": [
        {
            "buffer": 0,
            "byteOffset": 0,
            "byteLength": 1915620,
            "target": 34962
        },
        {
            "buffer": 0,
            "byteOffset": 1915620,
            "byteLength": 1915620,
            "target": 34962
        },
        {
            "buffer": 0,
            "byteOffset": 3831240,
            "byteLength": 2554160,
            "target": 34962
        },
        {
            "buffer": 0,
            "byteOffset": 6385400,
            "byteLength": 3828084,
            "target": 34963
        }
    ],
    "materials": [
        {
            "name": "DefaultMaterial",
            "pbrMetallicRoughness": {
                "baseColorFactor": [
                    0.6000000238418579,
                    0.6000000238418579,
                    0.6000000238418579,
                    1.0
                ],
                "metallicFactor": 0.0
            }
        }
    ],
    "meshes": [
        {
            "name": "defaultobject",
            "primitives": [
                {
                    "mode": 4,
                    "material": 0,
                    "indices": 3,
                    "attributes": {
                        "POSITION": 0,
                        "NORMAL": 1,
                        "COLOR_0": 2
                    }
                }
            ]
        }
    ],
    "nodes": [
        {
            "name": "input.obj",
            "children": [
                1
            ]
        },
        {
            "name": "defaultobject",
            "mesh": 0
        }
    ],
    "scenes": [
        {
            "nodes": [
                0
            ]
        }
    ],
    "scene": 0
}